# xmcd
#
# Track frame offsets:
#	150
#	13250
#	28176
#	40547
#	55545
#	69407
#	80977
#	94694
#	107110
#	119015
#	130377
#	141335
#	154413
#	169347
#	184165
#
# Disc length: 2614 seconds
#
# Revision: 1
# Processed by: cddbd v1.5.1PL0 Copyright (c) Steve Scherf et al.
# Submitted via: EasyCDDAExtractor 6.2.0.3
#
DISCID=d90a340f
DTITLE=Trio Los Panchos - Lo Mejor de los Panchos Vol. 1
DYEAR=2004
DGENRE=Latin
TTITLE0=Cien Años
TTITLE1=La Golondrina
TTITLE2=Remojame Los Labios
TTITLE3=Islas Canarias
TTITLE4=Sin Un Amor
TTITLE5=Yo Tengo Pena
TTITLE6=Noche de Ronda
TTITLE7=La Ultima Copa
TTITLE8=Maria Elena
TTITLE9=Tu Me Acostumbraste
TTITLE10=Esta Tarde Vi Llover
TTITLE11=Olvida Lo Pasado
TTITLE12=Caminito Verde
TTITLE13=Amapola
TTITLE14=Dulce, Dulce, Dulce
EXTD=
EXTT0=
EXTT1=
EXTT2=
EXTT3=
EXTT4=
EXTT5=
EXTT6=
EXTT7=
EXTT8=
EXTT9=
EXTT10=
EXTT11=
EXTT12=
EXTT13=
EXTT14=
PLAYORDER=
